<?xml version="1.0" encoding="UTF-8"?>
<svg version="1.1" xmlns="http://www.w3.org/2000/svg" width="2000" height="2000">
<path d="M0 0 C660 0 1320 0 2000 0 C2000 660 2000 1320 2000 2000 C1340 2000 680 2000 0 2000 C0 1340 0 680 0 0 Z " fill="#FEFEFE" transform="translate(0,0)"/>
<path d="M0 0 C345.84 0 691.68 0 1048 0 C1048.63976137 304.92626165 1048.63976137 304.92626165 1048.76248288 378.43355083 C1048.76493563 379.90182316 1048.76738862 381.37009549 1048.76984182 382.83836782 C1048.771071 383.57457528 1048.77230019 384.31078273 1048.77356662 385.0692995 C1048.77740524 387.36489718 1048.78126089 389.66049483 1048.78512129 391.95609248 C1048.92241918 473.63588339 1049.02446923 555.31563168 1049.0660501 700.67749642 C1049.06640057 702.94755398 1049.06676709 705.21761155 1049.06713971 707.48766911 C1049.06726077 708.23052126 1049.06738183 708.9733734 1049.06750655 709.73873622 C1049.06783299 711.73806801 1049.06816121 713.7373998 1049.0684896 715.73673159 C1049.08673937 841.15781908 1049.03273847 966.57892624 1049 1092 C702.83 1092 356.66 1092 0 1092 C0 731.64 0 371.28 0 0 Z " fill="#FDFDFD" transform="translate(473,430)"/>
<path d="M0 0 C1.83123413 0.0012085 1.83123413 0.0012085 3.69946289 0.00244141 C11.97407258 0.05705222 20.18991307 0.39375944 28.4375 1.0625 C29.92733398 1.18008667 29.92733398 1.18008667 31.44726562 1.30004883 C36.00129672 1.71437667 39.81317111 2.23574518 44 4.1875 C46.32597511 4.5688074 48.65912158 4.91210254 51 5.1875 C51 5.8475 51 6.5075 51 7.1875 C51.77601563 7.27386719 52.55203125 7.36023438 53.3515625 7.44921875 C66.45438579 9.15352393 77.64014627 13.56672635 89 20.1875 C90.68629592 21.10637981 92.37372053 22.02319265 94.0625 22.9375 C96.46654877 24.24168559 98.04985005 25.23735005 100 27.1875 C101.64991582 27.89460678 103.31562256 28.56693989 105 29.1875 C105 29.8475 105 30.5075 105 31.1875 C105.54785156 31.41824219 106.09570312 31.64898438 106.66015625 31.88671875 C109.66213914 33.55560072 111.9173198 35.66857116 114.4375 38 C115.36433594 38.85207031 116.29117187 39.70414063 117.24609375 40.58203125 C122.80652866 45.84275478 122.80652866 45.84275478 125 48.1875 C125 48.8475 125 49.5075 125 50.1875 C125.89912109 50.57035156 125.89912109 50.57035156 126.81640625 50.9609375 C132.63517719 54.22944211 136.92252092 62.3865881 140 68.1875 C140 68.8475 140 69.5075 140 70.1875 C140.66 70.1875 141.32 70.1875 142 70.1875 C145 75.9375 145 75.9375 145 78.1875 C145.66 78.1875 146.32 78.1875 147 78.1875 C148.75157645 82.84085477 150.49863164 87.49585787 152.23925781 92.15332031 C152.87388334 93.85027151 153.51086827 95.5463401 154.1484375 97.2421875 C155.12741989 99.88152402 156.07296449 102.52948532 157 105.1875 C157.36222656 106.21230469 157.72445313 107.23710938 158.09765625 108.29296875 C160.65012376 115.95037128 161.73614424 123.12670665 162 131.1875 C162.66 131.1875 163.32 131.1875 164 131.1875 C165.76021257 146.80292279 166.40143772 162.29358549 166.625 178 C166.66331531 180.26498672 166.70237405 182.52996099 166.7421875 184.79492188 C166.83665667 190.25900146 166.92209808 195.72316035 167 201.1875 C168.79143207 202.1670958 170.58315304 203.1461633 172.375 204.125 C173.37273437 204.67027344 174.37046875 205.21554687 175.3984375 205.77734375 C176.92070346 206.6024759 178.45128783 207.41314391 180 208.1875 C180 208.8475 180 209.5075 180 210.1875 C180.680625 210.27 181.36125 210.3525 182.0625 210.4375 C184.68725985 211.10765145 186.27804183 211.82864126 188.5625 213.1875 C191.32847169 214.79679262 192.99308773 215.55585103 196 216.1875 C195.83846436 214.95265869 195.67692871 213.71781738 195.51049805 212.44555664 C194.86999649 206.64813121 194.8380109 200.88626472 194.83203125 195.05859375 C194.82870285 193.91068863 194.82537445 192.76278351 194.82194519 191.58009338 C194.81690288 189.158787 194.81453603 186.73747373 194.81469727 184.31616211 C194.81252115 180.66052422 194.79436467 177.0051936 194.77539062 173.34960938 C194.74516504 161.13190666 194.92321331 149.24703278 197 137.1875 C197.17797119 136.13747803 197.35594238 135.08745605 197.53930664 134.00561523 C198.03566007 131.22535139 198.56955645 128.45648898 199.125 125.6875 C199.30675781 124.75808594 199.48851562 123.82867188 199.67578125 122.87109375 C200.11236316 120.64222822 200.55370321 118.41443654 201 116.1875 C201.66 116.1875 202.32 116.1875 203 116.1875 C203.00386719 115.383125 203.00386719 115.383125 203.0078125 114.5625 C203.30027864 108.63518613 204.71871002 103.46648514 206.75 97.9375 C207.10989014 96.92816406 207.10989014 96.92816406 207.47705078 95.8984375 C208.78951326 92.47300352 210.16896472 89.7943975 212.6015625 87.03125 C214.99535391 84.19300872 215.80746791 82.49103948 216.625 78.9375 C217.68421053 74.39802632 217.68421053 74.39802632 221 72.1875 C221.73176823 70.49168879 222.45893127 68.79341275 223.14257812 67.07763672 C224.54947932 63.97620477 226.63433336 61.3900695 228.75 58.75 C229.41914429 57.90260254 229.41914429 57.90260254 230.10180664 57.03808594 C231.39215162 55.41370642 232.69470007 53.79986767 234 52.1875 C234.60199219 51.42824219 235.20398437 50.66898438 235.82421875 49.88671875 C240.54597462 44.18174011 246.19188046 39.74224536 252 35.1875 C252.80050781 34.53265625 253.60101562 33.8778125 254.42578125 33.203125 C258.51699627 29.89623618 262.44208745 27.21687749 267.2734375 25.109375 C269.23383675 24.06264599 270.44277415 22.76098931 272 21.1875 C277.60751275 17.78155115 283.90588887 15.55356598 290 13.1875 C291.25490234 12.66349609 291.25490234 12.66349609 292.53515625 12.12890625 C294.79289787 11.26659923 296.88380139 10.71009417 299.25 10.25 C302.37503892 9.58992577 305.35491149 8.78917024 308.375 7.75 C326.15662295 1.71153077 343.68947538 -0.09644259 362.375 -0.0625 C363.0879422 -0.06172455 363.8008844 -0.0609491 364.53543091 -0.06015015 C374.39242154 -0.02909133 384.17246049 0.42236475 394 1.1875 C394 1.8475 394 2.5075 394 3.1875 C394.73863281 3.22488281 395.47726562 3.26226563 396.23828125 3.30078125 C402.46714831 3.70443083 408.12969131 4.58079654 414.109375 6.35546875 C419.34847753 7.86348069 424.68170775 8.9953232 430 10.1875 C430 10.8475 430 11.5075 430 12.1875 C431.36125 12.2803125 431.36125 12.2803125 432.75 12.375 C438.50767002 13.15851798 443.73614376 15.84512719 449 18.1875 C449 18.8475 449 19.5075 449 20.1875 C450.07701172 20.60322266 450.07701172 20.60322266 451.17578125 21.02734375 C460.5960721 24.89708978 467.65845744 30.21674242 475 37.1875 C476.26626796 38.25543683 477.53690032 39.31822705 478.8125 40.375 C482.68387277 43.74862484 486.18341805 47.44074085 489.6875 51.1875 C490.23446533 51.76910889 490.78143066 52.35071777 491.3449707 52.94995117 C503 65.57342454 503 65.57342454 503 74.1875 C503.66 74.1875 504.32 74.1875 505 74.1875 C507 77.1875 507 77.1875 507 80.1875 C507.66 80.1875 508.32 80.1875 509 80.1875 C512.33273766 86.38136151 515.32688485 92.13891855 516.57421875 99.09375 C517.45778584 103.43863037 519.25750873 107.52781364 521.0625 111.5625 C523.68244704 118.89835172 524.48415545 126.93965551 525.5625 134.625 C525.68818359 135.48931641 525.81386719 136.35363281 525.94335938 137.24414062 C527.59909854 148.90366509 528.1414292 160.36786757 528.09765625 172.13671875 C528.09618178 173.47578896 528.09516419 174.81485976 528.09460449 176.15393066 C528.08941008 181.0609627 528.07544909 185.9679823 528.0625 190.875 C528.041875 201.868125 528.02125 212.86125 528 224.1875 C497.64 224.1875 467.28 224.1875 436 224.1875 C435.814375 213.606875 435.814375 213.606875 435.625 202.8125 C436.45243996 163.53511252 436.45243996 163.53511252 424 127.1875 C423.608125 126.135625 423.21625 125.08375 422.8125 124 C419.50638116 116.09630965 413.05126173 109.82850938 406.46875 104.5625 C405.9840625 104.10875 405.499375 103.655 405 103.1875 C405 102.5275 405 101.8675 405 101.1875 C404.41992188 101.00574219 403.83984375 100.82398438 403.2421875 100.63671875 C399.70885479 99.49975525 396.37493644 98.3789569 393.0625 96.6875 C377.62512056 89.12633456 354.36347322 88.49016874 338 93.1875 C334.15096234 94.92304799 330.5973477 96.98649121 327 99.1875 C325.865625 99.744375 324.73125 100.30125 323.5625 100.875 C320.9666686 102.11328449 320.9666686 102.11328449 318.75 103.875 C317 105.1875 317 105.1875 315 105.1875 C314.67 106.1775 314.34 107.1675 314 108.1875 C313.34 108.1875 312.68 108.1875 312 108.1875 C312 108.8475 312 109.5075 312 110.1875 C310.66666667 111.52083333 309.33333333 112.85416667 308 114.1875 C306.98812105 115.84698148 305.9873454 117.51330562 305 119.1875 C304.27683594 119.85458984 304.27683594 119.85458984 303.5390625 120.53515625 C301.6458252 122.56774351 300.91137595 124.46812602 299.9375 127.0625 C299.61652344 127.90554688 299.29554688 128.74859375 298.96484375 129.6171875 C298.64644531 130.46539063 298.32804687 131.31359375 298 132.1875 C297.66766357 132.95618408 297.33532715 133.72486816 296.99291992 134.5168457 C295.98597341 137.22522729 295.5164713 139.62765487 295.1484375 142.48828125 C294.95507812 143.95297852 294.95507812 143.95297852 294.7578125 145.44726562 C294.56832031 146.95836914 294.56832031 146.95836914 294.375 148.5 C294.2409375 149.52673828 294.106875 150.55347656 293.96875 151.61132812 C293.63995296 154.13601966 293.31724083 156.66133479 293 159.1875 C292.34 159.1875 291.68 159.1875 291 159.1875 C290.94976018 164.57282217 290.9138928 169.95800162 290.89013672 175.34350586 C290.88021107 177.16742332 290.86666617 178.99132546 290.84912109 180.81518555 C290.63892279 203.26312754 292.31004731 225.01310746 302.609375 245.30859375 C304 248.1875 304 248.1875 304 250.1875 C304.66 250.1875 305.32 250.1875 306 250.1875 C306.86625 251.7653125 306.86625 251.7653125 307.75 253.375 C312.09884139 260.90997172 317.97161818 266.50191212 325.1875 271.3125 C328 273.1875 328 273.1875 330.2265625 275.5390625 C333.33045868 278.50306476 336.44371691 280.40326049 340.1875 282.4375 C340.81591797 282.788125 341.44433594 283.13875 342.09179688 283.5 C344.37506019 284.76983628 346.66301135 286.01900567 349 287.1875 C349 287.8475 349 288.5075 349 289.1875 C349.66 289.435 350.32 289.6825 351 289.9375 C354.76360907 291.50567045 358.3711424 293.33255046 362 295.1875 C362 295.8475 362 296.5075 362 297.1875 C364.71589741 298.56991625 367.45599496 299.84640428 370.25 301.0625 C373.96338722 302.699322 377.58591097 304.46714278 381.203125 306.3046875 C383.4217685 307.3947167 385.68613111 308.31979917 388 309.1875 C388 309.8475 388 310.5075 388 311.1875 C388.66 311.1875 389.32 311.1875 390 311.1875 C390 311.8475 390 312.5075 390 313.1875 C390.78375 313.331875 391.5675 313.47625 392.375 313.625 C395 314.1875 395 314.1875 397 315.1875 C397 315.8475 397 316.5075 397 317.1875 C397.59167969 317.30867188 398.18335938 317.42984375 398.79296875 317.5546875 C403.03803585 318.45494643 407.02439661 319.39206621 411 321.1875 C411 322.5075 411 323.8275 411 325.1875 C411.680625 325.290625 412.36125 325.39375 413.0625 325.5 C416.62915989 326.33475019 419.66222194 327.68222754 423 329.1875 C423 329.8475 423 330.5075 423 331.1875 C424.7015625 331.5896875 424.7015625 331.5896875 426.4375 332 C427.613125 332.391875 428.78875 332.78375 430 333.1875 C430.33 334.1775 430.66 335.1675 431 336.1875 C432.155 336.5175 433.31 336.8475 434.5 337.1875 C435.655 337.5175 436.81 337.8475 438 338.1875 C438.33 339.1775 438.66 340.1675 439 341.1875 C441.01508358 341.92073796 441.01508358 341.92073796 443 342.1875 C443 342.8475 443 343.5075 443 344.1875 C444.65 344.5175 446.3 344.8475 448 345.1875 C448.33 346.1775 448.66 347.1675 449 348.1875 C449.74507812 348.28417969 450.49015625 348.38085938 451.2578125 348.48046875 C454.36594608 349.28185362 455.59288518 350.28890535 457.875 352.5 C460.37511073 354.81177847 462.67702601 356.71871965 465.6875 358.3125 C468.49265747 359.90032498 470.25402515 361.33493976 472.45825195 363.60839844 C474.30919564 365.50418684 476.20856495 367.34562697 478.109375 369.19140625 C489.28483823 380.1317481 499.83536156 391.0829961 507 405.1875 C507 405.8475 507 406.5075 507 407.1875 C507.66 407.1875 508.32 407.1875 509 407.1875 C509.25523437 407.98800781 509.25523437 407.98800781 509.515625 408.8046875 C510.89304631 413.03952534 512.37458331 417.19069595 514.0625 421.3125 C515.2533871 424.22205371 516.21471794 426.95795849 517.0625 430 C517.83905041 433.1468009 517.83905041 433.1468009 519.40625 435.49609375 C524.74795901 444.51677392 526.57020182 455.16922663 528.25 465.375 C528.41298584 466.34018555 528.57597168 467.30537109 528.74389648 468.29980469 C531.32971081 485.15365034 531.18663049 502.35800059 531.18530273 519.36791992 C531.18749085 522.48695513 531.20574807 525.60563604 531.22460938 528.72460938 C531.30802394 558.67529163 530.04389444 592.60223373 515.453125 619.5 C513.91034716 622.16804651 513.91034716 622.16804651 513 625.1875 C512.34 625.1875 511.68 625.1875 511 625.1875 C510.89558594 625.88875 510.79117188 626.59 510.68359375 627.3125 C507.66442452 640.01026316 497.11021276 652.32144705 488 661.1875 C486.9171875 662.3321875 486.9171875 662.3321875 485.8125 663.5 C484 665.1875 484 665.1875 482 665.1875 C481.773125 665.744375 481.54625 666.30125 481.3125 666.875 C478.5740973 671.69980476 474.67703067 674.42925114 470 677.1875 C469.39929687 677.81398438 468.79859375 678.44046875 468.1796875 679.0859375 C465.82513 681.35610226 463.57160194 682.72024296 460.6875 684.25 C459.72457031 684.76175781 458.76164062 685.27351563 457.76953125 685.80078125 C455.49349007 686.94040695 453.22996307 687.97698711 450.875 688.9375 C447.89189608 689.86876062 447.89189608 689.86876062 447 692.1875 C443.12081644 693.50495857 440.11624135 694.1875 436 694.1875 C436 694.8475 436 695.5075 436 696.1875 C431.82262526 697.77888085 428.46839215 698.40028058 424 698.1875 C424 698.8475 424 699.5075 424 700.1875 C417.81627212 702.24874263 411.55145549 703.03747951 405.1015625 703.86791992 C403.61440158 704.09406928 402.13484374 704.37313606 400.6640625 704.6887207 C390.96768188 706.6572049 381.27862893 706.45416201 371.43017578 706.39331055 C368.40258212 706.37516531 365.37529848 706.37280085 362.34765625 706.37304688 C353.24055904 706.35736985 344.14368382 706.24302269 335.046875 705.7890625 C334.34646088 705.75737473 333.64604675 705.72568695 332.92440796 705.69303894 C326.06008028 705.29662623 319.62528378 703.62489322 313.03808594 701.75341797 C309.37850634 700.73725775 305.68737992 699.84640753 302 698.9375 C300.64570532 698.59947079 299.29152601 698.26097882 297.9375 697.921875 C296.968125 697.67953125 295.99875 697.4371875 295 697.1875 C295 696.5275 295 695.8675 295 695.1875 C294.27554687 695.10113281 293.55109375 695.01476563 292.8046875 694.92578125 C287.36368675 694.13502247 283.82140355 693.57140355 279.8125 689.5625 C275.5593937 686.33600556 269.99910564 684.93051161 265 683.1875 C265 682.5275 265 681.8675 265 681.1875 C264.14277344 680.96320312 263.28554687 680.73890625 262.40234375 680.5078125 C258.4710881 678.98225061 255.68078716 676.81546482 252.5625 674.0625 C251.96993408 673.54695557 251.37736816 673.03141113 250.7668457 672.50024414 C245.82783085 668.11108433 241.21974056 663.42988529 236.6875 658.625 C236.03531494 657.9345459 235.38312988 657.2440918 234.71118164 656.53271484 C230.12908503 651.5747551 230.12908503 651.5747551 229 648.1875 C228.01 647.5275 227.02 646.8675 226 646.1875 C226 645.5275 226 644.8675 226 644.1875 C225.34 644.1875 224.68 644.1875 224 644.1875 C223.71125 643.445 223.4225 642.7025 223.125 641.9375 C222.75375 641.03 222.3825 640.1225 222 639.1875 C221.731875 638.5275 221.46375 637.8675 221.1875 637.1875 C220.00821318 634.97980868 220.00821318 634.97980868 217.58203125 632.984375 C214.68709939 629.84856379 213.75956998 627.48611779 212.5 623.4375 C211.17914141 619.22962191 209.77423171 615.68034202 207.53515625 611.87890625 C193.64345866 587.55942825 194.38050425 552.95600537 194.75 525.9375 C194.77014462 523.31902445 194.78838097 520.70053351 194.8046875 518.08203125 C194.8479389 511.7835074 194.91418872 505.48558079 195 499.1875 C194.22060059 498.8773999 193.44120117 498.5672998 192.63818359 498.24780273 C190.27388401 497.29757572 187.94880892 496.29445563 185.625 495.25 C181.76562146 493.52394628 177.89017308 491.8428928 174 490.1875 C174 489.5275 174 488.8675 174 488.1875 C171.69 487.5275 169.38 486.8675 167 486.1875 C167.00999275 487.35783028 167.00999275 487.35783028 167.02018738 488.55180359 C167.08100293 496.00632833 167.12632473 503.46072812 167.15543652 510.91543865 C167.17090759 514.74541228 167.19179276 518.57517628 167.22631836 522.4050293 C167.37017986 538.80934678 167.37092474 554.85268616 164.38705444 571.05282593 C163.79225929 574.33322695 163.31860873 577.62762556 162.83203125 580.92578125 C162.49338872 583.11737345 162.15359121 585.30878757 161.8125 587.5 C161.63525391 588.64533203 161.45800781 589.79066406 161.27539062 590.97070312 C160.85134546 593.70980568 160.42623239 596.44873712 160 599.1875 C159.34 599.1875 158.68 599.1875 158 599.1875 C157.90203125 599.85394531 157.8040625 600.52039062 157.703125 601.20703125 C156.56239664 608.23824484 154.58427167 614.56460463 152 621.1875 C151.67 622.1775 151.34 623.1675 151 624.1875 C150.34 624.1875 149.68 624.1875 149 624.1875 C148.87625 624.703125 148.7525 625.21875 148.625 625.75 C147.81358372 628.91452351 146.9054087 632.04874985 146 635.1875 C145.34 635.1875 144.68 635.1875 144 635.1875 C143.67 636.1775 143.34 637.1675 143 638.1875 C142.34 638.5175 141.68 638.8475 141 639.1875 C139.95650161 640.82728318 138.96817992 642.50214976 138 644.1875 C135.09351862 649.16572935 132.20645298 653.18623985 128 657.1875 C127.05321953 658.30470096 126.11633014 659.43033137 125.1875 660.5625 C122.35576094 663.91971641 119.21588604 666.72538763 115.875 669.56640625 C114.33718088 670.89597903 112.87497199 672.31252801 111.4375 673.75 C106.27914427 678.90835573 101.90154555 682.52374558 95 685.1875 C93.824375 685.785625 92.64875 686.38375 91.4375 687 C82.59338498 691.47367686 73.44299192 695.19721923 64 698.1875 C63.34 698.5175 62.68 698.8475 62 699.1875 C59.3276379 699.32165472 56.67749512 699.23068541 54 699.1875 C54 699.8475 54 700.5075 54 701.1875 C50.52109541 701.66858177 47.04183048 702.14700891 43.5625 702.625 C42.58861328 702.75970703 41.61472656 702.89441406 40.61132812 703.03320312 C36.0458059 703.65924463 31.48683761 704.25327609 26.90234375 704.72265625 C23.21577792 704.93866159 23.21577792 704.93866159 21 706.1875 C19.58951003 706.29192611 18.17430492 706.33614342 16.76000977 706.34863281 C15.44076256 706.36304413 15.44076256 706.36304413 14.09486389 706.37774658 C13.13672287 706.38199646 12.17858185 706.38624634 11.19140625 706.390625 C10.19608383 706.39632507 9.20076141 706.40202515 8.17527771 706.40789795 C6.05428126 706.41736821 3.93326997 706.42388993 1.81225586 706.42773438 C-1.36567972 706.43728418 -4.5429239 706.46821972 -7.72070312 706.5 C-20.45567009 706.56582491 -32.50427517 705.61630179 -45 703.1875 C-46.41204724 702.92955147 -47.82439495 702.67324146 -49.23706055 702.41870117 C-68.16977399 698.93861916 -83.88817873 691.50628155 -100 681.1875 C-101.0725 680.506875 -102.145 679.82625 -103.25 679.125 C-105.83930123 677.30071959 -107.79949887 675.45272175 -110 673.1875 C-111.20270911 672.13934463 -112.41183866 671.09853979 -113.625 670.0625 C-120.21983792 664.33215395 -126.81618712 658.24985057 -132 651.1875 C-132 650.5275 -132 649.8675 -132 649.1875 C-132.66 649.1875 -133.32 649.1875 -134 649.1875 C-135.47265625 647.359375 -135.47265625 647.359375 -137.0625 644.9375 C-137.58972656 644.14859375 -138.11695313 643.3596875 -138.66015625 642.546875 C-140 640.1875 -140 640.1875 -140.49609375 637.953125 C-140.66238281 637.37046875 -140.82867188 636.7878125 -141 636.1875 C-141.99 635.8575 -142.98 635.5275 -144 635.1875 C-145.28125 633.078125 -145.28125 633.078125 -146.5 630.4375 C-147.7933308 627.69159948 -149.01638122 625.16262481 -150.6875 622.625 C-152.63088812 619.01585064 -153.25806556 615.19394596 -154 611.1875 C-154.66 611.1875 -155.32 611.1875 -156 611.1875 C-156.66 607.2275 -157.32 603.2675 -158 599.1875 C-158.66 599.1875 -159.32 599.1875 -160 599.1875 C-162.1893687 591.71880252 -163.84089395 584.21814177 -165.25390625 576.5703125 C-165.86454639 573.30159108 -165.86454639 573.30159108 -167.00794983 570.83451843 C-170.71824767 560.93458891 -169.1341862 548.44936347 -169.09765625 537.94921875 C-169.09618122 536.51289916 -169.09516398 535.07657903 -169.09460449 533.64025879 C-169.08941656 528.38516419 -169.07545569 523.13008119 -169.0625 517.875 C-169.041875 506.098125 -169.02125 494.32125 -169 482.1875 C-137.65 482.1875 -106.3 482.1875 -74 482.1875 C-73.67 505.2875 -73.34 528.3875 -73 552.1875 C-72.34 552.1875 -71.68 552.1875 -71 552.1875 C-70.83564453 553.07888672 -70.83564453 553.07888672 -70.66796875 553.98828125 C-68.57225537 564.94392109 -65.54599419 574.98972926 -61 585.1875 C-60.64292969 586.07824219 -60.28585937 586.96898437 -59.91796875 587.88671875 C-56.81285627 595.05151892 -52.2988003 598.75159525 -46 603.1875 C-45.19175781 603.81785156 -44.38351562 604.44820312 -43.55078125 605.09765625 C-37.43337818 609.73742573 -31.41749667 612.28287828 -24 614.1875 C-23.13503906 614.41308594 -22.27007813 614.63867188 -21.37890625 614.87109375 C-4.4204871 618.43999183 17.4385731 618.37607343 33 610.1875 C38.89285714 607.1875 38.89285714 607.1875 41 607.1875 C41 606.5275 41 605.8675 41 605.1875 C42.40135384 604.26465722 43.80493723 603.34504602 45.21875 602.44140625 C51.30543693 598.156699 55.34706432 592.56762738 59 586.1875 C59.50144531 585.37539062 60.00289062 584.56328125 60.51953125 583.7265625 C71.02947763 565.7015885 70.60234617 542.80039701 70.41162109 522.68261719 C70.38092053 519.33339057 70.37000419 515.98550709 70.37151146 512.6362381 C70.37083088 509.3720177 70.35313404 506.10791902 70.3359375 502.84375 C70.33371185 501.6642981 70.33148621 500.48484619 70.32919312 499.26965332 C70.21276375 488.9360187 69.68655896 478.56061791 65 469.1875 C64.39165241 467.79348377 63.78784416 466.39748164 63.1875 465 C56.93324275 451.06465876 50.42588979 440.53717553 38.6796875 430.65625 C37 429.1875 37 429.1875 34.625 426.6875 C31.6677733 423.87109362 28.52998538 421.79175698 25.0859375 419.6171875 C23 418.1875 23 418.1875 21.48828125 416.61328125 C19.70677788 414.90659167 18.13454246 414.29939167 15.8125 413.5 C15.09707031 413.24863281 14.38164063 412.99726562 13.64453125 412.73828125 C13.10183594 412.55652344 12.55914063 412.37476563 12 412.1875 C12 411.5275 12 410.8675 12 410.1875 C10.865625 409.89875 9.73125 409.61 8.5625 409.3125 C7.386875 408.94125 6.21125 408.57 5 408.1875 C4.67 407.5275 4.34 406.8675 4 406.1875 C2.07677144 405.45799951 0.15118796 404.73372139 -1.7890625 404.05078125 C-5.08323111 402.76454227 -7.97644144 401.0142333 -11 399.1875 C-11 398.5275 -11 397.8675 -11 397.1875 C-12.03060547 396.88005859 -12.03060547 396.88005859 -13.08203125 396.56640625 C-14.43361328 396.16228516 -14.43361328 396.16228516 -15.8125 395.75 C-16.70582031 395.48316406 -17.59914063 395.21632813 -18.51953125 394.94140625 C-20.35473055 394.38362127 -22.18033726 393.79405425 -24 393.1875 C-24 392.5275 -24 391.8675 -24 391.1875 C-24.63679687 390.96191406 -25.27359375 390.73632812 -25.9296875 390.50390625 C-30.17272906 388.68468868 -34.11297528 386.40148594 -38.125 384.125 C-39.73043345 383.21508422 -41.33715257 382.30743211 -42.9453125 381.40234375 C-43.65187988 381.00136475 -44.35844727 380.60038574 -45.08642578 380.18725586 C-47.12576632 379.05723285 -47.12576632 379.05723285 -50 378.1875 C-50 377.5275 -50 376.8675 -50 376.1875 C-51.2684375 375.81625 -51.2684375 375.81625 -52.5625 375.4375 C-56.38427474 374.04776373 -59.51868063 372.27629162 -63 370.1875 C-63 369.5275 -63 368.8675 -63 368.1875 C-63.804375 367.960625 -64.60875 367.73375 -65.4375 367.5 C-69.91285739 365.85118412 -73.88721318 363.58205588 -78 361.1875 C-78 360.5275 -78 359.8675 -78 359.1875 C-78.94875 358.878125 -79.8975 358.56875 -80.875 358.25 C-84 357.1875 -84 357.1875 -86 356.1875 C-86 355.5275 -86 354.8675 -86 354.1875 C-86.721875 353.919375 -87.44375 353.65125 -88.1875 353.375 C-90.99766383 352.18848638 -93.48416557 350.91264361 -96 349.1875 C-96 348.5275 -96 347.8675 -96 347.1875 C-96.721875 346.919375 -97.44375 346.65125 -98.1875 346.375 C-103.22341779 344.2487236 -107.03869218 341.38510582 -111.09765625 337.796875 C-113.07820975 336.12133487 -115.13719393 334.62916286 -117.25 333.125 C-120.42674247 330.78360056 -122.11470119 328.68876921 -124 325.1875 C-125.6436814 323.49816078 -127.3142876 321.83490076 -129 320.1875 C-130.28447975 318.80421412 -131.55476481 317.40764706 -132.8125 316 C-133.41707031 315.32582031 -134.02164063 314.65164063 -134.64453125 313.95703125 C-136 312.1875 -136 312.1875 -136 310.1875 C-136.66 310.1875 -137.32 310.1875 -138 310.1875 C-140.04169485 307.28201118 -141 305.78607954 -141 302.1875 C-141.99 301.8575 -142.98 301.5275 -144 301.1875 C-145.60546875 298.5703125 -145.60546875 298.5703125 -147.1875 295.3125 C-147.71730469 294.24257813 -148.24710938 293.17265625 -148.79296875 292.0703125 C-150 289.1875 -150 289.1875 -150 286.1875 C-150.66 286.1875 -151.32 286.1875 -152 286.1875 C-152.18175781 285.54683594 -152.36351562 284.90617187 -152.55078125 284.24609375 C-152.80214844 283.38113281 -153.05351563 282.51617188 -153.3125 281.625 C-153.55613281 280.77808594 -153.79976562 279.93117188 -154.05078125 279.05859375 C-154.95427713 276.32579756 -156.04656602 273.73060063 -157.19946289 271.09545898 C-164.21237761 254.38123863 -166.28603418 238.14937706 -167 220.1875 C-167.66 220.1875 -168.32 220.1875 -169 220.1875 C-169.02581717 213.32715683 -169.04305754 206.46682661 -169.05493164 199.60644531 C-169.05989311 197.28319837 -169.0666644 194.95995442 -169.07543945 192.63671875 C-169.11967421 180.60486504 -169.0785071 168.59282076 -168.55859375 156.5703125 C-168.50011009 155.16457474 -168.50011009 155.16457474 -168.44044495 153.73043823 C-168.12619045 147.31369045 -168.12619045 147.31369045 -167 146.1875 C-166.71851895 143.92035368 -166.47664833 141.64828277 -166.25 139.375 C-165.49286842 132.6913557 -164.23239291 126.21768613 -162.625 119.6875 C-162.32964355 118.45229614 -162.32964355 118.45229614 -162.02832031 117.19213867 C-160.82605698 112.47339844 -159.21724412 108.40464483 -156.94091797 104.10742188 C-155.44531743 101.05568273 -154.63373574 97.96994705 -153.75 94.6875 C-153.41484375 93.4603125 -153.0796875 92.233125 -152.734375 90.96875 C-152.37085938 89.59203125 -152.37085938 89.59203125 -152 88.1875 C-151.34 88.1875 -150.68 88.1875 -150 88.1875 C-149.85304688 87.57003906 -149.70609375 86.95257812 -149.5546875 86.31640625 C-147.77947929 79.61346492 -145.02912645 74.7708595 -141 69.1875 C-140.08044702 67.75184463 -139.16381099 66.31431703 -138.25 64.875 C-132.79549741 56.70760007 -126.60553983 49.4066133 -119 43.1875 C-117.32552706 41.52867634 -115.65884819 39.86194864 -114 38.1875 C-102.93994603 28.02087657 -91.28083283 19.30318613 -76.703125 15.015625 C-74.13269306 14.22815163 -71.80639433 13.26418475 -69.375 12.125 C-62.05375703 8.74391688 -53.82128758 5.98713919 -45.6875 6.125 C-43.8621875 6.1559375 -43.8621875 6.1559375 -42 6.1875 C-42 5.5275 -42 4.8675 -42 4.1875 C-38.66683783 3.70713783 -35.33343987 3.22843096 -32 2.75 C-31.06542969 2.61529297 -30.13085938 2.48058594 -29.16796875 2.34179688 C-27.30515664 2.07475038 -25.44186915 1.81099926 -23.578125 1.55053711 C-21.42518909 1.24737274 -19.27473878 0.92662381 -17.125 0.6015625 C-11.44044993 -0.08666586 -5.71769384 -0.00392456 0 0 Z " fill="#030303" transform="translate(817,620.8125)"/>
<path d="M0 0 C345.84 0 691.68 0 1048 0 C1048.63976137 304.92626165 1048.63976137 304.92626165 1048.76248288 378.43355083 C1048.76493563 379.90182316 1048.76738862 381.37009549 1048.76984182 382.83836782 C1048.771071 383.57457528 1048.77230019 384.31078273 1048.77356662 385.0692995 C1048.77740524 387.36489718 1048.78126089 389.66049483 1048.78512129 391.95609248 C1048.92241918 473.63588339 1049.02446923 555.31563168 1049.0660501 700.67749642 C1049.06640057 702.94755398 1049.06676709 705.21761155 1049.06713971 707.48766911 C1049.06726077 708.23052126 1049.06738183 708.9733734 1049.06750655 709.73873622 C1049.06783299 711.73806801 1049.06816121 713.7373998 1049.0684896 715.73673159 C1049.08673937 841.15781908 1049.03273847 966.57892624 1049 1092 C702.83 1092 356.66 1092 0 1092 C0 731.64 0 371.28 0 0 Z M85 85 C84.90173966 87.00577654 84.87552862 89.01508352 84.8758015 91.02326542 C84.87452342 91.66341664 84.87324533 92.30356787 84.87192852 92.96311761 C84.86883089 95.1391123 84.8729498 97.31503636 84.87695217 99.49102879 C84.87621345 101.06118827 84.87503584 102.6313476 84.87345567 104.20150647 C84.87036577 108.55645816 84.87357894 112.91138677 84.87773381 117.26633676 C84.88115035 121.98890868 84.8788006 126.71147812 84.87715632 131.4340505 C84.87507638 139.72423116 84.87673688 148.01440467 84.88079453 156.3045845 C84.88681148 168.63192089 84.88713202 180.95925274 84.88625254 193.28659032 C84.88493633 214.01972128 84.88828879 234.75284905 84.89426994 255.48597908 C84.90017989 276.02476072 84.90403446 296.56354104 84.90512276 317.10232353 C84.9051915 318.37769383 84.90526024 319.65306413 84.90533106 320.96708201 C84.90566938 327.44361437 84.90597077 333.92014673 84.90625793 340.3966791 C84.9083603 386.31173568 84.91510233 432.22679016 84.92456055 478.1418457 C84.92685216 489.27646891 84.92912751 500.41109211 84.93133545 511.54571533 C84.9314724 512.23626551 84.93160935 512.92681569 84.93175045 513.63829164 C84.93809131 545.72379216 84.9418083 577.80929283 84.94486827 609.89479382 C84.94506884 611.99354908 84.94527114 614.09230435 84.94547401 616.19105961 C84.94781083 640.37545222 84.94998814 664.55984484 84.95211896 688.74423746 C84.96151247 794.16282661 84.98158127 899.58141125 85 1005 C375.07 1005 665.14 1005 964 1005 C964 701.07 964 397.14 964 84 C819.150625 83.979375 674.30125 83.95875 525.0625 83.9375 C479.23383057 83.928396 433.40516113 83.91929199 386.18774414 83.90991211 C345.30211643 83.90656881 345.30211643 83.90656881 304.41648865 83.90455627 C284.92052794 83.90355838 265.42457067 83.89923435 245.92861094 83.89332657 C226.07395187 83.88739099 206.21929499 83.88515933 186.36463508 83.88655505 C174.54166222 83.88727565 162.71869745 83.88525343 150.89572608 83.8791924 C143.10615017 83.87546796 135.31657968 83.87531186 127.5270034 83.87816466 C123.0795018 83.8796885 118.63201582 83.87956497 114.18451583 83.87511742 C110.14009717 83.87110433 106.09570641 83.87159742 102.05128823 83.87586016 C100.58833158 83.87658102 99.12537295 83.8755843 97.66241884 83.87276472 C95.69293558 83.86920579 93.72344354 83.87229081 91.75396019 83.8758015 C90.65850827 83.87564552 89.56305634 83.87548954 88.43440891 83.87532884 C86.05188003 83.72478119 86.05188003 83.72478119 85 85 Z " fill="#020202" transform="translate(473,430)"/>
<path d="M0 0 C0 0.66 0 1.32 0 2 C0.969375 2.103125 1.93875 2.20625 2.9375 2.3125 C16.94137176 4.44535422 27.63691668 12.74011482 36 24 C40.94708322 32.11366724 44.00094922 41.02457993 47 50 C47.32983887 50.82854492 47.65967773 51.65708984 47.99951172 52.51074219 C49.38148771 57.33045934 49.72333144 62.06550642 50.0859375 67.0546875 C50.21130386 68.7391951 50.21130386 68.7391951 50.33920288 70.45773315 C51.38103826 85.85109989 51.45473423 101.27569126 51.60089111 116.69818115 C51.64173222 120.80927772 51.69244716 124.92025319 51.7421875 129.03125 C51.83747193 137.02075431 51.92140035 145.01031413 52 153 C56.95 155.31 61.9 157.62 67 160 C67 160.66 67 161.32 67 162 C69.31 162.66 71.62 163.32 74 164 C74 164.66 74 165.32 74 166 C74.71285156 166.10054687 75.42570313 166.20109375 76.16015625 166.3046875 C79.39372139 167.09639946 81.60892563 168.37528548 84.4375 170.125 C89.9539151 173.43619782 95.58414025 176.34174647 101.35546875 179.1796875 C105.15597055 181.05990331 108.8918468 183.05259784 112.625 185.0625 C119.02218656 188.50412977 125.48038503 191.79482616 132 195 C132 195.66 132 196.32 132 197 C133.07713257 197.16278442 133.07713257 197.16278442 134.17602539 197.32885742 C137.24503395 198.05823449 139.45011128 199.17197105 142.18359375 200.73828125 C143.18245605 201.30506592 144.18131836 201.87185059 145.21044922 202.45581055 C146.27537598 203.06851807 147.34030273 203.68122559 148.4375 204.3125 C150.6985791 205.59748036 152.96031027 206.88131394 155.22265625 208.1640625 C156.35977051 208.81020508 157.49688477 209.45634766 158.66845703 210.12207031 C163.53980904 212.86796212 168.45518177 215.52974829 173.375 218.1875 C180.28038228 221.92551447 187.10336621 225.77512059 193.875 229.75 C202.07360648 234.55346496 210.44645922 238.86855676 219 243 C221.23161521 244.07828044 223.4610037 245.16118901 225.6875 246.25 C226.59886719 246.68828125 227.51023437 247.1265625 228.44921875 247.578125 C231.2327261 249.12972787 233.52842642 250.99558977 236 253 C238.01418407 254.2030265 238.01418407 254.2030265 240 255.125 C240.680625 255.45242188 241.36125 255.77984375 242.0625 256.1171875 C244.34643697 257.15785233 246.64990966 258.11871612 249 259 C249 259.66 249 260.32 249 261 C251.31 261.66 253.62 262.32 256 263 C256 263.66 256 264.32 256 265 C258.97 265.99 261.94 266.98 265 268 C265 268.66 265 269.32 265 270 C265.721875 270.103125 266.44375 270.20625 267.1875 270.3125 C270.27548048 271.06733967 272.33525871 272.29183251 275 274 C276.32608822 274.68096422 277.65686601 275.35330586 279 276 C279 276.66 279 277.32 279 278 C281.31 278.66 283.62 279.32 286 280 C286 280.66 286 281.32 286 282 C286.68964844 282.08894531 287.37929687 282.17789062 288.08984375 282.26953125 C291.69950051 283.17557932 294.36822371 284.7796558 297.5625 286.6875 C303.06210563 289.92689385 308.63026595 292.89315231 314.37890625 295.67578125 C317.00747351 297.00377574 319.47920234 298.47746694 322 300 C325.09374045 301.74797244 328.203281 303.46724545 331.3125 305.1875 C332.14845703 305.65091797 332.98441406 306.11433594 333.84570312 306.59179688 C335.89670777 307.72863945 337.94815033 308.86468352 340 310 C340 310.66 340 311.32 340 312 C341.258125 312.28875 342.51625 312.5775 343.8125 312.875 C346.8539399 313.57303539 348.30669878 314.20446585 351 316 C351 316.66 351 317.32 351 318 C353.5251979 319.27372317 356.05970865 320.49331265 358.625 321.6875 C363.78466834 324.26733417 368.35183838 327.60552235 373 331 C373.79664063 331.56589844 374.59328125 332.13179687 375.4140625 332.71484375 C376.50847656 333.50568359 376.50847656 333.50568359 377.625 334.3125 C378.27726562 334.78300781 378.92953125 335.25351563 379.6015625 335.73828125 C380.06304688 336.15464844 380.52453125 336.57101562 381 337 C381 337.66 381 338.32 381 339 C381.56460937 339.24105469 382.12921875 339.48210937 382.7109375 339.73046875 C385.46491673 341.25784631 387.39374859 343.09244216 389.625 345.3125 C390.40101563 346.07175781 391.17703125 346.83101562 391.9765625 347.61328125 C394.03070126 350.03621326 394.92004128 352.04614032 396 355 C397.31328657 356.35308313 398.64499081 357.68870078 400 359 C400.33 359.99 400.66 360.98 401 362 C401.66 362.33 402.32 362.66 403 363 C403.88115305 364.84373278 404.68141681 366.72654814 405.4375 368.625 C406.76065231 371.91836344 408.08289435 375.18137035 409.55859375 378.41015625 C411.06965484 382.17347642 411.94111693 385.83742967 412.625 389.8125 C412.74617188 390.46025391 412.86734375 391.10800781 412.9921875 391.77539062 C413.36536725 393.8461326 413.69314212 395.91841329 414 398 C414.09933838 398.67353516 414.19867676 399.34707031 414.30102539 400.04101562 C415.3230233 408.37774206 415.186062 416.7874681 415.18530273 425.17285156 C415.18746678 427.83415279 415.20560766 430.495023 415.22460938 433.15625 C415.27524312 448.75983738 414.59656546 464.75368992 411 480 C410.84273437 480.70253906 410.68546875 481.40507813 410.5234375 482.12890625 C407.15864485 494.30945566 398.34882435 507.52370137 387.875 514.375 C386.32425781 515.40753906 386.32425781 515.40753906 384.7421875 516.4609375 C382 518 382 518 379 518 C379 518.66 379 519.32 379 520 C377.86820313 520.34933594 376.73640625 520.69867187 375.5703125 521.05859375 C374.08851369 521.51813895 372.60674438 521.97777931 371.125 522.4375 C370.37863281 522.66759766 369.63226562 522.89769531 368.86328125 523.13476562 C364.84908399 524.35379647 364.84908399 524.35379647 361 526 C358.50241646 526.12324524 356.03388609 526.18839137 353.53515625 526.203125 C352.78721298 526.20882507 352.03926971 526.21452515 351.2686615 526.22039795 C349.67904068 526.22985758 348.08940017 526.23638575 346.49975586 526.24023438 C344.10298582 526.24983778 341.70711176 526.28080661 339.31054688 526.3125 C330.76171208 526.37001162 323.14036471 525.97563711 315 523 C315 522.34 315 521.68 315 521 C314.05125 520.95875 313.1025 520.9175 312.125 520.875 C303.6578569 519.65806243 294.77196767 512.81002962 289.56640625 506.171875 C288.73688944 505.00021327 287.92542595 503.81535313 287.140625 502.61328125 C286.04720252 500.95423285 286.04720252 500.95423285 284.54760742 499.62841797 C281.88058241 496.82213041 280.61261679 493.32218456 279.0625 489.8125 C278.70986084 489.01602051 278.35722168 488.21954102 277.99389648 487.39892578 C272.75614829 475.17549587 269.79855838 462.33839572 269.9375 449 C269.95103516 447.2984375 269.95103516 447.2984375 269.96484375 445.5625 C269.97644531 444.716875 269.98804688 443.87125 270 443 C269.34 443 268.68 443 268 443 C268 416.27 268 389.54 268 362 C265.36 361.34 262.72 360.68 260 360 C260 359.34 260 358.68 260 358 C255.05 356.515 255.05 356.515 250 355 C250 354.34 250 353.68 250 353 C249.195625 352.87625 248.39125 352.7525 247.5625 352.625 C246.716875 352.41875 245.87125 352.2125 245 352 C244.67 351.34 244.34 350.68 244 350 C241.98330173 348.86649466 241.98330173 348.86649466 240 348 C240 347.34 240 346.68 240 346 C239.154375 345.896875 238.30875 345.79375 237.4375 345.6875 C230.54888588 344.30977717 225.13049489 340.9851847 219.234375 337.3046875 C216.95396796 335.87060676 216.95396796 335.87060676 214 335 C214 334.34 214 333.68 214 333 C213.278125 332.731875 212.55625 332.46375 211.8125 332.1875 C209 331 209 331 206.6875 329.5625 C203.92415653 327.84585183 203.92415653 327.84585183 200.3125 326.6875 C196.13070202 325.18454467 192.5942995 323.00855038 188.83203125 320.66796875 C185.64733407 318.79229193 182.38602081 317.17885711 179.0625 315.5625 C174.67526588 313.42872762 170.51006591 311.13275499 166.4375 308.4375 C161.54780822 305.216056 156.48349831 302.84656323 151.140625 300.47265625 C147.33835983 298.6897533 143.82911862 296.58390834 140.265625 294.37109375 C137.58502268 292.74886717 134.82943404 291.37258978 132.015625 290 C129.71325044 288.85773665 127.44717776 287.66209956 125.1875 286.4375 C124.45917969 286.04433594 123.73085938 285.65117188 122.98046875 285.24609375 C121 284 121 284 119.43359375 282.4140625 C117.32277055 280.33199711 114.78080075 279.90678285 112 279 C111.67 278.34 111.34 277.68 111 277 C109.02111039 276.27306096 107.02045442 275.60183749 105 275 C105 274.34 105 273.68 105 273 C104.29875 272.896875 103.5975 272.79375 102.875 272.6875 C99.57790533 271.89906432 96.99194614 270.58756326 94 269 C92.906875 268.484375 91.81375 267.96875 90.6875 267.4375 C88 266 88 266 87 264 C86.01 263.67 85.02 263.34 84 263 C83.01 262.67 82.02 262.34 81 262 C80.67 261.34 80.34 260.68 80 260 C77.99391866 259.07891946 77.99391866 259.07891946 75.5625 258.25 C70.83614327 256.43890319 66.70618242 254.16039729 62.4140625 251.49609375 C56.22083038 247.65789326 49.73543706 244.30901458 43.3125 240.875 C42.68255127 240.53807129 42.05260254 240.20114258 41.40356445 239.85400391 C36.55096486 237.26944631 31.66082001 234.78340566 26.6875 232.4375 C24 231 24 231 23 229 C21.12076014 228.31664005 19.24048451 227.63601222 17.35546875 226.96875 C13.94727146 225.56703702 10.95946507 223.61326752 7.8359375 221.671875 C4.63278352 219.78351425 1.33915306 218.12931596 -2 216.5 C-7.17814356 213.95892628 -12.12936904 211.23296803 -17.01171875 208.1640625 C-19.09053902 206.8551449 -19.09053902 206.8551449 -22 206 C-22.33 205.34 -22.66 204.68 -23 204 C-25.01669827 202.86649466 -25.01669827 202.86649466 -27 202 C-27 201.34 -27 200.68 -27 200 C-28.06541016 199.8453125 -28.06541016 199.8453125 -29.15234375 199.6875 C-42.05055182 196.57352933 -54.16670946 184.93810463 -63.6484375 176.140625 C-66.05229462 173.89862554 -66.05229462 173.89862554 -69.00390625 171.65234375 C-72.2095763 168.99758459 -74.40296271 165.84197256 -76.5625 162.3125 C-76.94744629 161.69455566 -77.33239258 161.07661133 -77.72900391 160.43994141 C-82.5777798 152.56042496 -86.25905806 145.2616338 -88.2265625 136.15234375 C-88.86202352 133.56235866 -89.63525541 131.21234829 -90.54296875 128.71484375 C-92.14460699 123.98340321 -92.5530673 119.59511344 -92.6875 114.625 C-92.71875977 113.73071289 -92.75001953 112.83642578 -92.78222656 111.91503906 C-92.87454708 108.94353584 -92.93931183 105.97230883 -93 103 C-93.02723145 101.94329102 -93.05446289 100.88658203 -93.08251953 99.79785156 C-93.47209331 83.28874376 -92.41018359 67.33497658 -90 51 C-89.34 51 -88.68 51 -88 51 C-87.8453125 49.2365625 -87.8453125 49.2365625 -87.6875 47.4375 C-87.15369888 43.21898835 -85.85508264 39.84757882 -84 36 C-83.566875 35.02546875 -83.566875 35.02546875 -83.125 34.03125 C-79.79319525 26.81233971 -74.72123083 21.44879127 -69 16 C-68.44957031 15.45472656 -67.89914062 14.90945313 -67.33203125 14.34765625 C-49.13319789 -2.80052282 -23.39480867 -2.94406581 0 0 Z " fill="#FDFDFD" transform="translate(837,712)"/>
<path d="M0 0 C31.35 0 62.7 0 95 0 C95 18.15 95 36.3 95 55 C94.67 55 94.34 55 94 55 C94 37.18 94 19.36 94 1 C63.64 1 33.28 1 2 1 C2.0825 12.26125 2.165 23.5225 2.25 35.125 C2.26579102 38.63141113 2.28158203 42.13782227 2.29785156 45.75048828 C2.42687018 60.67819266 2.80114388 74.97602804 6.15136719 89.60498047 C7.15795961 94.13110472 7.14402218 98.37343153 7 103 C7.66 103 8.32 103 9 103 C9.93619813 106.15506142 10.1057123 108.96586502 10.0625 112.25 C10.05347656 113.14203125 10.04445313 114.0340625 10.03515625 114.953125 C10.02355469 115.62859375 10.01195312 116.3040625 10 117 C9.67 117 9.34 117 9 117 C6.8106313 109.53130252 5.15910605 102.03064177 3.74609375 94.3828125 C3.13545361 91.11409108 3.13545361 91.11409108 1.99205017 88.64701843 C-1.71824767 78.74708891 -0.1341862 66.26186347 -0.09765625 55.76171875 C-0.09618122 54.32539916 -0.09516398 52.88907903 -0.09460449 51.45275879 C-0.08941656 46.19766419 -0.07545569 40.94258119 -0.0625 35.6875 C-0.041875 23.910625 -0.02125 12.13375 0 0 Z " fill="#3C3C3C" transform="translate(648,1103)"/>
<path d="M0 0 C0.33 0 0.66 0 1 0 C1.00586624 0.83112808 1.01173248 1.66225616 1.01777649 2.51856995 C1.07609062 10.41664755 1.14838239 18.31445391 1.23571491 26.21226597 C1.28011999 30.2709657 1.31943833 34.32957192 1.34643555 38.38842773 C1.37277105 42.31791143 1.41337673 46.24702919 1.46318626 50.17628288 C1.47965354 51.66265183 1.49129134 53.14908376 1.49761391 54.63553047 C1.5451381 64.79765542 2.68198577 74.09142593 5 84 C6.44943698 90.51009568 7.21582419 96.30945021 7 103 C7.66 103 8.32 103 9 103 C9.93619813 106.15506142 10.1057123 108.96586502 10.0625 112.25 C10.05347656 113.14203125 10.04445313 114.0340625 10.03515625 114.953125 C10.02355469 115.62859375 10.01195312 116.3040625 10 117 C9.67 117 9.34 117 9 117 C6.8106313 109.53130252 5.15910605 102.03064177 3.74609375 94.3828125 C3.13545361 91.11409108 3.13545361 91.11409108 1.99205017 88.64701843 C-1.7185273 78.7463428 -0.13382164 66.26349647 -0.09765625 55.76171875 C-0.09578606 54.14362126 -0.094365 52.52552319 -0.09336853 50.90742493 C-0.08959062 46.69404475 -0.079802 42.48070027 -0.06866455 38.26733398 C-0.05834753 33.94971194 -0.05384909 29.632084 -0.04882812 25.31445312 C-0.0381744 16.87628589 -0.02115642 8.43814741 0 0 Z " fill="#9F9F9F" transform="translate(648,1103)"/>
<path d="M0 0 C0.33 0 0.66 0 1 0 C1.02777016 2.52091316 1.04719472 5.04150166 1.0625 7.5625 C1.07087891 8.24763672 1.07925781 8.93277344 1.08789062 9.63867188 C1.10872317 14.28432957 0.8816126 18.86742783 0.53125 23.5 C-0.2668403 34.79719131 -0.36162268 46.11703808 -0.5625 57.4375 C-0.60579423 59.72982388 -0.64941156 62.02214168 -0.69335938 64.31445312 C-0.79929544 69.87623754 -0.90125291 75.43808354 -1 81 C-1.66 81 -2.32 81 -3 81 C-3.02581717 74.13965683 -3.04305754 67.27932661 -3.05493164 60.41894531 C-3.05989311 58.09569837 -3.0666644 55.77245442 -3.07543945 53.44921875 C-3.11967421 41.41736504 -3.0785071 29.40532076 -2.55859375 17.3828125 C-2.51960464 16.44565399 -2.48061554 15.50849548 -2.44044495 14.54293823 C-2.12619045 8.12619045 -2.12619045 8.12619045 -1 7 C-0.63239269 4.67182036 -0.29758419 2.3381615 0 0 Z " fill="#585857" transform="translate(651,760)"/>
<path d="M0 0 C0.92820557 0.06058594 1.85641113 0.12117188 2.81274414 0.18359375 C19.70656196 1.26340264 36.56684079 2.2059365 53.5 2.1875 C54.80332275 2.18814453 56.10664551 2.18878906 57.44946289 2.18945312 C64.30015574 2.19522334 64.30015574 2.19522334 71 1 C73.24907152 0.93209325 75.50001605 0.91500016 77.75 0.9375 C79.50570313 0.95103516 79.50570313 0.95103516 81.296875 0.96484375 C82.18890625 0.97644531 83.0809375 0.98804688 84 1 C77.65423401 4.96610374 69.01069598 4.14890416 61.7890625 4.1328125 C60.82205414 4.13376923 59.85504578 4.13472595 58.85873413 4.13571167 C56.81646662 4.13638945 54.77419691 4.13456333 52.73193359 4.13037109 C49.66889349 4.12507588 46.60600399 4.13029936 43.54296875 4.13671875 C34.36319073 4.14099542 25.19348563 4.06729048 16.0234375 3.6171875 C15.32296295 3.58682404 14.6224884 3.55646057 13.90078735 3.525177 C9.03902521 3.2461467 4.67264128 2.28407965 0 1 C0 0.67 0 0.34 0 0 Z " fill="#575756" transform="translate(1136,1323)"/>
<path d="M0 0 C0.66 0.33 1.32 0.66 2 1 C-1.93470135 5.71207396 -5.8822812 9.97111356 -10.71484375 13.7734375 C-11.13894531 14.17820312 -11.56304688 14.58296875 -12 15 C-12 15.66 -12 16.32 -12 17 C-12.680625 17.37125 -13.36125 17.7425 -14.0625 18.125 C-17.52150744 20.33287709 -19.6616016 22.94132859 -22.28515625 26.05859375 C-24.31117422 28.35228608 -26.52794966 30.20214521 -29 32 C-29 27.91909491 -26.90772236 26.07863324 -24.375 23.125 C-23.73498047 22.34962891 -23.73498047 22.34962891 -23.08203125 21.55859375 C-20.01318957 17.92178734 -16.70395324 14.98374011 -13 12 C-12.21625 11.21625 -11.4325 10.4325 -10.625 9.625 C-7.235842 6.235842 -3.63067179 3.12616156 0 0 Z " fill="#454545" transform="translate(711,652)"/>
<path d="M0 0 C0.33 0 0.66 0 1 0 C1 2.64 1 5.28 1 8 C-29.03 8 -59.06 8 -90 8 C-89.67 6.68 -89.34 5.36 -89 4 C-89 4.99 -89 5.98 -89 7 C-45.935 6.505 -45.935 6.505 -2 6 C-1.34 4.02 -0.68 2.04 0 0 Z " fill="#19191A" transform="translate(1343,836)"/>
<path d="M0 0 C2.18257474 0.01823269 4.36472018 0.02050875 6.54736328 0.02026367 C15.84075353 0.04418135 25.05197716 0.47214796 34.31689453 1.20581055 C34.31689453 1.53581055 34.31689453 1.86581055 34.31689453 2.20581055 C28.05880759 2.35055961 21.80067111 2.49286249 15.54248047 2.63305664 C13.42072101 2.68091346 11.29897562 2.7293984 9.17724609 2.77856445 C-3.11195124 3.06287544 -15.39024513 3.28716036 -27.68310547 3.20581055 C-27.68310547 2.87581055 -27.68310547 2.54581055 -27.68310547 2.20581055 C-18.37967789 0.42445345 -9.42971934 -0.08105474 0 0 Z " fill="#60605F" transform="translate(1176.68310546875,620.794189453125)"/>
<path d="M0 0 C17.82 0 35.64 0 54 0 C50.43969739 2.37353507 47.78486896 2.36158229 43.6640625 2.44921875 C42.94769623 2.47095657 42.23132996 2.4926944 41.49325562 2.51509094 C39.97870176 2.55896761 38.4640065 2.59817666 36.94921875 2.63305664 C34.64014594 2.68714522 32.33199239 2.75741234 30.0234375 2.83007812 C28.54950547 2.87075635 27.07554731 2.91050038 25.6015625 2.94921875 C24.57163681 2.98036018 24.57163681 2.98036018 23.52090454 3.01213074 C19.8517611 3.08905752 16.57201362 2.81460811 13 2 C10.73004581 1.93347145 8.45831305 1.91456249 6.1875 1.9375 C5.02605469 1.94652344 3.86460938 1.95554687 2.66796875 1.96484375 C1.78753906 1.97644531 0.90710937 1.98804688 0 2 C0 1.34 0 0.68 0 0 Z " fill="#111212" transform="translate(1066,430)"/>
<path d="M0 0 C0.33 0 0.66 0 1 0 C1.68022483 3.47665446 2.34164011 6.95664448 3 10.4375 C3.19078125 11.41138672 3.3815625 12.38527344 3.578125 13.38867188 C4.69871573 19.37182594 5.201411 24.9136113 5 31 C5.66 31 6.32 31 7 31 C7.93619813 34.15506142 8.1057123 36.96586502 8.0625 40.25 C8.05347656 41.14203125 8.04445313 42.0340625 8.03515625 42.953125 C8.02355469 43.62859375 8.01195312 44.3040625 8 45 C7.67 45 7.34 45 7 45 C6.54052766 43.33364698 6.08249105 41.66689807 5.625 40 C5.36976563 39.071875 5.11453125 38.14375 4.8515625 37.1875 C4.57054687 36.135625 4.28953125 35.08375 4 34 C3.6596875 32.73027344 3.319375 31.46054688 2.96875 30.15234375 C1.93598608 25.98465121 1.34782063 21.82613815 0.875 17.5625 C0.79008301 16.82330322 0.70516602 16.08410645 0.61767578 15.32250977 C0.05645959 10.18630886 -0.187984 5.16956001 0 0 Z " fill="#3B3C3B" transform="translate(650,1175)"/>
<path d="M0 0 C0 0.66 0 1.32 0 2 C1.19496094 1.97679687 2.38992188 1.95359375 3.62109375 1.9296875 C23.48755984 1.65837322 23.48755984 1.65837322 30 6 C29.01 5.89171875 29.01 5.89171875 28 5.78125 C16.35053901 4.68911303 4.68878035 4.90710714 -7 5 C-7 4.34 -7 3.68 -7 3 C-2.61538462 0 -2.61538462 0 0 0 Z " fill="#2A2A2B" transform="translate(1171,707)"/>
<path d="M0 0 C0.99 0.495 0.99 0.495 2 1 C2.67016602 3.8515625 2.67016602 3.8515625 3.25390625 7.625 C3.35968491 8.28709473 3.46546356 8.94918945 3.57444763 9.63134766 C3.91223786 11.75300218 4.23804113 13.87626919 4.5625 16 C4.89218558 18.12341489 5.22440445 20.2463635 5.56126404 22.36865234 C5.86614196 24.29437592 6.16286444 26.2213853 6.45922852 28.1484375 C6.70186653 30.88952549 6.70186653 30.88952549 8 32 C8.04080783 33.99958364 8.04254356 36.00045254 8 38 C-0.45124454 29.54875546 0.58225978 11.21616214 0 0 Z " fill="#353534" transform="translate(650,845)"/>
<path d="M0 0 C0.66 0 1.32 0 2 0 C3.8113386 15.38020543 4.25045417 30.52000561 4 46 C3.67 46 3.34 46 3 46 C2.91697632 44.47862427 2.91697632 44.47862427 2.83227539 42.92651367 C2.62583229 39.1635792 2.4139572 35.40096686 2.20043945 31.63842773 C2.10878677 30.00992981 2.01860745 28.38134828 1.92993164 26.75268555 C1.80221617 24.41171093 1.66920524 22.07108817 1.53515625 19.73046875 C1.47727684 18.63813179 1.47727684 18.63813179 1.41822815 17.52372742 C1.23899653 14.47204765 0.97210152 11.91630457 0 9 C-0.06740865 7.43881572 -0.08514456 5.8749748 -0.0625 4.3125 C-0.05347656 3.50425781 -0.04445313 2.69601562 -0.03515625 1.86328125 C-0.02355469 1.24839844 -0.01195312 0.63351562 0 0 Z " fill="#222221" transform="translate(979,752)"/>
<path d="M0 0 C0.66 0 1.32 0 2 0 C6.45424739 8.44946928 8.96318481 16.22569413 10.53515625 25.64453125 C10.8932027 28.00772143 10.8932027 28.00772143 12 30 C12.07116382 32.37402501 12.08409085 34.75000677 12.0625 37.125 C12.05347656 38.40632813 12.04445313 39.68765625 12.03515625 41.0078125 C12.02355469 41.99523438 12.01195312 42.98265625 12 44 C11.67 44 11.34 44 11 44 C10.89042969 43.07960938 10.78085938 42.15921875 10.66796875 41.2109375 C9.04656787 28.2660947 7.12101014 16.3460543 1.20703125 4.546875 C0 2 0 2 0 0 Z " fill="#494949" transform="translate(1240,1076)"/>
<path d="M0 0 C1.29671923 2.59343846 0.78511203 3.58082715 0.125 6.375 C-0.73893982 10.34912316 -1.22679732 14.19243431 -1.5 18.25 C-1.79837737 22.45983344 -2.36061207 26.06546897 -4 30 C-4.66 30 -5.32 30 -6 30 C-6.27502506 23.0609063 -5.35327006 17.18948817 -3.5625 10.5 C-3.21735352 9.14261719 -3.21735352 9.14261719 -2.86523438 7.7578125 C-1.15506269 1.15506269 -1.15506269 1.15506269 0 0 Z " fill="#504F4F" transform="translate(658,730)"/>
<path d="M0 0 C0.66 0.33 1.32 0.66 2 1 C-1 3 -1 3 -4 3 C-4.0928125 3.8971875 -4.0928125 3.8971875 -4.1875 4.8125 C-5.34861028 7.93856613 -7.06623019 8.5331151 -10 10 C-12.98357998 11.34971475 -14.70334304 12 -18 12 C-18.33 12.99 -18.66 13.98 -19 15 C-19.99 14.67 -20.98 14.34 -22 14 C-18.3623412 10.78532478 -15.56049733 8.72559359 -11 7 C-10.31164063 6.30003906 -10.31164063 6.30003906 -9.609375 5.5859375 C-7.8351877 3.83758788 -6.15929858 2.86297574 -3.9375 1.75 C-3.24527344 1.39421875 -2.55304688 1.0384375 -1.83984375 0.671875 C-1.23269531 0.45015625 -0.62554688 0.2284375 0 0 Z " fill="#484747" transform="translate(1097,638)"/>
<path d="M0 0 C-3 2 -3 2 -5 2 C-5 2.99 -5 3.98 -5 5 C-6.74965358 5.05429959 -8.49979787 5.09292823 -10.25 5.125 C-11.22453125 5.14820313 -12.1990625 5.17140625 -13.203125 5.1953125 C-16.0196498 4.99862781 -17.60949036 4.44568916 -20 3 C-17.36 3 -14.72 3 -12 3 C-12 2.34 -12 1.68 -12 1 C-8.0186217 -0.3271261 -4.14954773 -0.06915913 0 0 Z " fill="#262626" transform="translate(787,624)"/>
<path d="M0 0 C1.875 0.1875 1.875 0.1875 4 1 C5.52164099 3.89111788 6 5.71823412 6 9 C6.66 9 7.32 9 8 9 C12.59225513 20.52164009 12.59225513 20.52164009 12 26 C10.62950582 23.30146057 9.34572927 20.58184037 8.125 17.8125 C7.77953125 17.03132812 7.4340625 16.25015625 7.078125 15.4453125 C6 13 6 13 4.921875 10.5546875 C4.57640625 9.77351562 4.2309375 8.99234375 3.875 8.1875 C3.56304688 7.47980469 3.25109375 6.77210938 2.9296875 6.04296875 C2.00100979 4.00221898 1.01518545 1.99892709 0 0 Z " fill="#363736" transform="translate(1236,737)"/>
<path d="M0 0 C0.5775 0.20625 1.155 0.4125 1.75 0.625 C-2.43669037 3.6985483 -5.92364177 4.02994161 -10.95703125 3.91796875 C-12.04512337 3.91160149 -12.04512337 3.91160149 -13.15519714 3.90510559 C-15.45801891 3.88839543 -17.75994553 3.8507596 -20.0625 3.8125 C-21.6295446 3.79744316 -23.196603 3.7837565 -24.76367188 3.77148438 C-28.59278957 3.73851731 -32.42124334 3.68678992 -36.25 3.625 C-36.25 3.295 -36.25 2.965 -36.25 2.625 C-34.9182373 2.595271 -34.9182373 2.595271 -33.55957031 2.56494141 C-30.25688666 2.48671768 -26.95464936 2.40002115 -23.65234375 2.30761719 C-22.22469602 2.26939976 -20.79695437 2.23453428 -19.36914062 2.203125 C-17.31346132 2.15731599 -15.25842446 2.0993502 -13.203125 2.0390625 C-11.96723633 2.0076416 -10.73134766 1.9762207 -9.45800781 1.94384766 C-5.96278628 1.59645349 -3.33713462 -0.5561891 0 0 Z " fill="#5A5A58" transform="translate(1204.25,1235.375)"/>
<path d="M0 0 C0.33 0 0.66 0 1 0 C1 2.64 1 5.28 1 8 C-10.22 8 -21.44 8 -33 8 C-33 7.67 -33 7.34 -33 7 C-17.655 6.505 -17.655 6.505 -2 6 C-1.34 4.02 -0.68 2.04 0 0 Z " fill="#121314" transform="translate(1343,836)"/>
<path d="M0 0 C0.33 1.32 0.66 2.64 1 4 C0.01 4.33 -0.98 4.66 -2 5 C-1.979375 5.763125 -1.95875 6.52625 -1.9375 7.3125 C-2 10 -2 10 -3 13 C-3.9590625 13.2165625 -3.9590625 13.2165625 -4.9375 13.4375 C-7.20311706 13.80104993 -7.20311706 13.80104993 -8.25 16.0625 C-8.4975 16.701875 -8.745 17.34125 -9 18 C-9.33 17.34 -9.66 16.68 -10 16 C-8.52830189 12.26415094 -8.52830189 12.26415094 -6 11 C-5.24925894 9.27003147 -4.50222036 7.53803111 -3.796875 5.7890625 C-2.8216071 3.59949046 -1.53777987 1.83069032 0 0 Z " fill="#3E3F3F" transform="translate(1044,682)"/>
<path d="M0 0 C2.8125 -0.25 2.8125 -0.25 6 0 C7.9375 1.75 7.9375 1.75 9 4 C8.6875 6.25 8.6875 6.25 8 8 C8.66 8 9.32 8 10 8 C10 8.99 10 9.98 10 11 C9.34 11 8.68 11 8 11 C7 9.33333333 6 7.66666667 5 6 C3.35259924 4.3142876 1.68933922 2.6436814 0 1 C0 0.67 0 0.34 0 0 Z " fill="#2E2E2D" transform="translate(688,940)"/>
<path d="M0 0 C0.66 0.33 1.32 0.66 2 1 C-5.90132827 10.38140417 -5.90132827 10.38140417 -10 13 C-10.99 12.67 -11.98 12.34 -13 12 C-8.87675353 7.74790208 -4.48717034 3.86364295 0 0 Z " fill="#464747" transform="translate(711,652)"/>
<path d="M0 0 C2.39614126 -0.05425226 4.79103853 -0.09379027 7.1875 -0.125 C8.19780273 -0.15013672 8.19780273 -0.15013672 9.22851562 -0.17578125 C13.33200339 -0.21581528 16.28749468 0.29843506 20 2 C22.32597511 2.3813074 24.65912158 2.72460254 27 3 C27 3.33 27 3.66 27 4 C20.60348741 4.15366997 14.72301098 3.64846374 8.4375 2.5 C7.61958984 2.35691406 6.80167969 2.21382812 5.95898438 2.06640625 C3.97145496 1.71771688 1.98554104 1.35983915 0 1 C0 0.67 0 0.34 0 0 Z " fill="#5C5C5C" transform="translate(841,623)"/>
<path d="M0 0 C0.33 0.66 0.66 1.32 1 2 C0.67 2.99 0.34 3.98 0 5 C-0.66 5 -1.32 5 -2 5 C-2.12375 5.515625 -2.2475 6.03125 -2.375 6.5625 C-3.18641628 9.72702351 -4.0945913 12.86124985 -5 16 C-5.66 16 -6.32 16 -7 16 C-7.33 16.99 -7.66 17.98 -8 19 C-9 17 -9 17 -8.0625 13.875 C-7.711875 12.92625 -7.36125 11.9775 -7 11 C-6.34 11 -5.68 11 -5 11 C-4.9175 9.9275 -4.835 8.855 -4.75 7.75 C-3.94523098 3.7261549 -3.12270126 2.51830747 0 0 Z " fill="#5E5E5F" transform="translate(968,1240)"/>
<path d="M0 0 C0.99 0.495 0.99 0.495 2 1 C2.33333333 3.33333333 2.66666667 5.66666667 3 8 C3.66 8.33 4.32 8.66 5 9 C6.10348459 12.08142868 6.10523224 15.00234962 6.0625 18.25 C6.05347656 19.14203125 6.04445313 20.0340625 6.03515625 20.953125 C6.02355469 21.62859375 6.01195312 22.3040625 6 23 C5.67 23 5.34 23 5 23 C3.98972716 19.33607716 2.99101644 15.66917793 2 12 C1.78730469 11.21753906 1.57460938 10.43507813 1.35546875 9.62890625 C0.4712177 6.26366306 0 3.5097907 0 0 Z " fill="#6C6C6B" transform="translate(652,1197)"/>
<path d="M0 0 C0.66 0.33 1.32 0.66 2 1 C0.58474822 2.58459815 -0.8322642 4.16762391 -2.25 5.75 C-3.03890625 6.63171875 -3.8278125 7.5134375 -4.640625 8.421875 C-8.91867853 13.09656925 -8.91867853 13.09656925 -11 15 C-11.66 15 -12.32 15 -13 15 C-11.48391249 11.14086816 -9.19933595 9.54492632 -6 7 C-3.91860662 4.73250556 -1.94772308 2.3827815 0 0 Z " fill="#D4D4D4" transform="translate(772,724)"/>
<path d="M0 0 C5.56890517 0.47986031 10.67067568 1.29915181 16 3 C16 3.33 16 3.66 16 4 C10.72 4 5.44 4 0 4 C0 2.66666667 0 1.33333333 0 0 Z " fill="#262626" transform="translate(1218,625)"/>
<path d="M0 0 C1.32 0.66 2.64 1.32 4 2 C3.01 2.33 2.02 2.66 1 3 C1 3.66 1 4.32 1 5 C1.99 5 2.98 5 4 5 C4 5.99 4 6.98 4 8 C-6.50909091 3.98181818 -6.50909091 3.98181818 -8 1 C-5.36 1.66 -2.72 2.32 0 3 C0 2.01 0 1.02 0 0 Z " fill="#3E3E3E" transform="translate(1162,1008)"/>
<path d="M0 0 C7.96978021 -0.42695251 14.43140177 1.27882002 21 6 C21 6.66 21 7.32 21 8 C20.360625 7.731875 19.72125 7.46375 19.0625 7.1875 C12.81920978 4.76663236 6.45127243 2.7843945 0 1 C0 0.67 0 0.34 0 0 Z " fill="#4C4D4D" transform="translate(837,713)"/>
<path d="M0 0 C0.66 0 1.32 0 2 0 C3.00605593 2.60197202 4.00502525 5.20629362 5 7.8125 C5.28617188 8.55048828 5.57234375 9.28847656 5.8671875 10.04882812 C6.13789062 10.76103516 6.40859375 11.47324219 6.6875 12.20703125 C6.93886719 12.8616333 7.19023438 13.51623535 7.44921875 14.19067383 C8 16 8 16 8 19 C7.34 19 6.68 19 6 19 C5.80664062 18.37351562 5.61328125 17.74703125 5.4140625 17.1015625 C5.15367187 16.28429687 4.89328125 15.46703125 4.625 14.625 C4.36976563 13.81289063 4.11453125 13.00078125 3.8515625 12.1640625 C3.10145717 9.83540815 3.10145717 9.83540815 1 8 C0.43479997 5.34462628 0.26211802 2.70855287 0 0 Z " fill="#595958" transform="translate(962,699)"/>
<path d="M0 0 C2.25098557 3.37647836 2.72316716 5.84811937 3.5 9.8125 C4.39425653 14.34696382 5.45189591 18.64262081 7 23 C5 22 5 22 4 19 C3.49855469 18.61199219 2.99710938 18.22398437 2.48046875 17.82421875 C0.09677694 14.8870576 0.42357404 11.44620799 0.3125 7.8125 C0.27833984 7.06291016 0.24417969 6.31332031 0.20898438 5.54101562 C0.12665706 3.69453162 0.06164719 1.84729006 0 0 Z " fill="#4D4D4D" transform="translate(1109,837)"/>
<path d="M0 0 C2 2 2 2 2.4375 5.25 C2.79777908 9.00371726 2.79777908 9.00371726 4.5625 12.0625 C6.15532038 15.31739382 6.25530455 17.42573623 6 21 C0.73571217 15.73571217 0.4278423 7.06677447 0 0 Z " fill="#676767" transform="translate(652,862)"/>
<path d="M0 0 C0.12375 0.804375 0.2475 1.60875 0.375 2.4375 C0.684375 3.7059375 0.684375 3.7059375 1 5 C1.66 5.33 2.32 5.66 3 6 C3 6.66 3 7.32 3 8 C0.03 7.01 -2.94 6.02 -6 5 C-6 4.34 -6 3.68 -6 3 C-2.53846154 0 -2.53846154 0 0 0 Z " fill="#363836" transform="translate(1129,989)"/>
<path d="M0 0 C-4.00996859 2.07412169 -7.15394977 3.12820363 -11.6875 3.0625 C-12.89986328 3.04896484 -12.89986328 3.04896484 -14.13671875 3.03515625 C-15.05904297 3.01775391 -15.05904297 3.01775391 -16 3 C-16 2.34 -16 1.68 -16 1 C-10.61509359 0.08342019 -5.45769811 -0.11138159 0 0 Z " fill="#575856" transform="translate(1241,1320)"/>
<path d="M0 0 C0.33 0 0.66 0 1 0 C1.12117187 0.64066406 1.24234375 1.28132813 1.3671875 1.94140625 C2.1502724 5.98332906 2.93075282 9.95087106 4.1875 13.875 C4.96318772 16.85841429 5.12430928 18.18922679 4 21 C-0.11196775 14.83204838 -0.26793858 7.23434167 0 0 Z " fill="#555654" transform="translate(745,1173)"/>
<path d="M0 0 C3.34373475 0.55728913 6.03312999 1.35173889 9 3 C9 3.66 9 4.32 9 5 C10.65 5 12.3 5 14 5 C14.33 5.99 14.66 6.98 15 8 C9.29052772 6.69157927 4.71410524 4.51415118 0 1 C0 0.67 0 0.34 0 0 Z " fill="#5A5B5B" transform="translate(1132,997)"/>
<path d="M0 0 C0.66 0 1.32 0 2 0 C1.34 1.98 0.68 3.96 0 6 C0.66 6.33 1.32 6.66 2 7 C2 7.66 2 8.32 2 9 C-1.77545388 7.90931332 -4.47043472 7.0916909 -7 4 C-5.35 4 -3.7 4 -2 4 C-1.34 2.68 -0.68 1.36 0 0 Z " fill="#323131" transform="translate(765,988)"/>
<path d="M0 0 C2.31 0.33 4.62 0.66 7 1 C7 1.66 7 2.32 7 3 C8.423125 3.12375 8.423125 3.12375 9.875 3.25 C13 4 13 4 14.375 6.0625 C14.58125 6.701875 14.7875 7.34125 15 8 C11.45756548 6.63408831 8.07372071 5.09068516 4.6875 3.375 C3.80449219 2.92898438 2.92148437 2.48296875 2.01171875 2.0234375 C1.34785156 1.68570313 0.68398438 1.34796875 0 1 C0 0.67 0 0.34 0 0 Z " fill="#474747" transform="translate(925,884)"/>
<path d="M0 0 C0.99 0.495 0.99 0.495 2 1 C2 1.66 2 2.32 2 3 C2.66 3 3.32 3 4 3 C6.41685712 7.22949995 7.34833144 10.12335991 7 15 C3.12252569 13.06126284 2.16521297 6.48694349 0.8125 2.5 C0.4103125 1.2625 0.4103125 1.2625 0 0 Z " fill="#6C6C6B" transform="translate(876,1075)"/>
<path d="M0 0 C0.99 0.495 0.99 0.495 2 1 C2.33333333 2.33333333 2.66666667 3.66666667 3 5 C3.66 5.33 4.32 5.66 5 6 C7.55223881 13.11940299 7.55223881 13.11940299 6 17 C5.28385417 15.27473958 4.56770833 13.54947917 3.8515625 11.82421875 C2.93193308 9.73466068 2.93193308 9.73466068 1 7 C0.60612212 4.67612053 0.26513915 2.34206251 0 0 Z " fill="#8B8B8B" transform="translate(1332,1045)"/>
<path d="M0 0 C0.66 0 1.32 0 2 0 C2.33 5.28 2.66 10.56 3 16 C0.86804846 11.73609692 -0.13032964 8.99274487 -0.0625 4.3125 C-0.05347656 3.50425781 -0.04445313 2.69601562 -0.03515625 1.86328125 C-0.02355469 1.24839844 -0.01195312 0.63351562 0 0 Z " fill="#6A6B69" transform="translate(979,752)"/>
<path d="M0 0 C0.66 0.33 1.32 0.66 2 1 C-1 3 -1 3 -4 3 C-4.33 4.32 -4.66 5.64 -5 7 C-6.98 7.33 -8.96 7.66 -11 8 C-10 5 -10 5 -7.78515625 3.578125 C-6.88667969 3.13984375 -5.98820312 2.7015625 -5.0625 2.25 C-4.16660156 1.80140625 -3.27070312 1.3528125 -2.34765625 0.890625 C-1.18556641 0.44976563 -1.18556641 0.44976563 0 0 Z " fill="#606060" transform="translate(1097,638)"/>
<path d="M0 0 C4.29 1.65 8.58 3.3 13 5 C13 5.66 13 6.32 13 7 C11.081875 6.8453125 11.081875 6.8453125 9.125 6.6875 C8.04605469 6.60048828 8.04605469 6.60048828 6.9453125 6.51171875 C5 6 5 6 3 3 C2.01 2.67 1.02 2.34 0 2 C0 1.34 0 0.68 0 0 Z " fill="#3D3E3D" transform="translate(1253,634)"/>
<path d="M0 0 C1.72357119 2.58535679 2.44735018 4.03811614 3.1875 6.9375 C3.36667969 7.60652344 3.54585937 8.27554687 3.73046875 8.96484375 C4.03268678 11.24680888 3.68756692 12.82026659 3 15 C0.74315457 9.63999211 -0.36263859 5.8022175 0 0 Z " fill="#646464" transform="translate(1340,1068)"/>
<path d="M0 0 C4.60895683 1.31684481 8.14140235 3.15198745 12 6 C12 6.33 12 6.66 12 7 C8.28400809 7.20086443 7.22791555 7.1519437 4 5 C4 4.34 4 3.68 4 3 C2.68 2.34 1.36 1.68 0 1 C0 0.67 0 0.34 0 0 Z " fill="#666767" transform="translate(1039,1039)"/>
<path d="M0 0 C0.66 0.33 1.32 0.66 2 1 C0.02 3.31 -1.96 5.62 -4 8 C-5.32 7.67 -6.64 7.34 -8 7 C-5.36 4.69 -2.72 2.38 0 0 Z " fill="#4A4A49" transform="translate(1070,655)"/>
<path d="M0 0 C-5.78794849 3.13513876 -11.32257319 5.50080701 -18 5 C-18 4.67 -18 4.34 -18 4 C-5.33823529 -0.32352941 -5.33823529 -0.32352941 0 0 Z " fill="#868685" transform="translate(1130,627)"/>
<path d="M0 0 C-1.06893218 1.03590338 -2.15578488 2.05333942 -3.25 3.0625 C-4.15492188 3.91521484 -4.15492188 3.91521484 -5.078125 4.78515625 C-7 6 -7 6 -9.234375 5.68359375 C-9.81703125 5.45800781 -10.3996875 5.23242188 -11 5 C-10.01 4.67 -9.02 4.34 -8 4 C-8 3.01 -8 2.02 -8 1 C-2.25 -1.125 -2.25 -1.125 0 0 Z " fill="#7E7E7E" transform="translate(926,1297)"/>
<path d="M0 0 C0.99 1.32 1.98 2.64 3 4 C-1.455 6.97 -1.455 6.97 -6 10 C-4.21739173 6.43478346 -2.24007711 3.28544643 0 0 Z " fill="#4E4F4D" transform="translate(1239,1210)"/>
<path d="M0 0 C3.375 0.3125 3.375 0.3125 7 1 C7.66 1.99 8.32 2.98 9 4 C11.05003955 5.19232613 11.05003955 5.19232613 13 6 C11 7 11 7 7.875 6.0625 C6.92625 5.711875 5.9775 5.36125 5 5 C5 4.34 5 3.68 5 3 C2.525 2.01 2.525 2.01 0 1 C0 0.67 0 0.34 0 0 Z " fill="#7A7A7A" transform="translate(788,1009)"/>
<path d="M0 0 C7.34117647 0.48941176 7.34117647 0.48941176 10.5 2.9375 C12 5 12 5 12 7 C10.68 6.67 9.36 6.34 8 6 C8 5.34 8 4.68 8 4 C6.865625 3.71125 5.73125 3.4225 4.5625 3.125 C3.386875 2.75375 2.21125 2.3825 1 2 C0.67 1.34 0.34 0.68 0 0 Z " fill="#414140" transform="translate(896,868)"/>
<path d="M0 0 C0.66 0 1.32 0 2 0 C2.309375 1.134375 2.61875 2.26875 2.9375 3.4375 C3.62924531 6.78775099 3.62924531 6.78775099 5 8 C5.04092937 10.33297433 5.04241723 12.66705225 5 15 C2.88955618 11.83433427 2.24447923 9.48802585 1.375 5.8125 C1.11460937 4.72582031 0.85421875 3.63914062 0.5859375 2.51953125 C0.39257812 1.68808594 0.19921875 0.85664062 0 0 Z " fill="#1D1F1E" transform="translate(881,753)"/>
<path d="M0 0 C0.99 0.33 1.98 0.66 3 1 C2.38385645 2.81552978 1.75681772 4.6273653 1.125 6.4375 C0.60292969 7.95150391 0.60292969 7.95150391 0.0703125 9.49609375 C-1 12 -1 12 -3 13 C-2.34 10.03 -1.68 7.06 -1 4 C-0.34 4 0.32 4 1 4 C0.67 2.68 0.34 1.36 0 0 Z " fill="#212120" transform="translate(1116,741)"/>
<path d="M0 0 C1.98 0.495 1.98 0.495 4 1 C3.79375 1.598125 3.5875 2.19625 3.375 2.8125 C2.69328085 5.28450846 2.69328085 5.28450846 5 8 C3.02 7.34 1.04 6.68 -1 6 C-0.34 5.67 0.32 5.34 1 5 C0.67 3.35 0.34 1.7 0 0 Z " fill="#262626" transform="translate(1000,919)"/>
<path d="M0 0 C2.33333823 2.12121657 3.9148886 4.01594365 5 7 C4.625 9.25 4.625 9.25 4 11 C1.17438373 7.20307814 -0.56638908 4.81430721 0 0 Z " fill="#606160" transform="translate(1327,706)"/>
<path d="M0 0 C0.33 0.99 0.66 1.98 1 3 C0.38125 3.2475 -0.2375 3.495 -0.875 3.75 C-3.35068687 5.20628639 -3.95125002 6.37812506 -5 9 C-5.99 9 -6.98 9 -8 9 C-8 8.34 -8 7.68 -8 7 C-6.25 5.2734375 -6.25 5.2734375 -4 3.375 C-3.2575 2.74335937 -2.515 2.11171875 -1.75 1.4609375 C-1.1725 0.97882812 -0.595 0.49671875 0 0 Z " fill="#525151" transform="translate(1061,663)"/>
<path d="M0 0 C1.32 0.33 2.64 0.66 4 1 C3 4 3 4 0.5625 5.75 C-0.7059375 6.36875 -0.7059375 6.36875 -2 7 C-2.66 6.67 -3.32 6.34 -4 6 C-2.68 4.02 -1.36 2.04 0 0 Z " fill="#313231" transform="translate(696,665)"/>
<path d="M0 0 C0.66 0.33 1.32 0.66 2 1 C1 4 1 4 -2.375 5.6875 C-6 7 -6 7 -9 7 C-6.03716687 4.61327331 -3.05729491 2.2646629 0 0 Z " fill="#616161" transform="translate(722,644)"/>
<path d="M0 0 C0.33 0.99 0.66 1.98 1 3 C3.50447516 4.21869929 3.50447516 4.21869929 6 5 C6 5.66 6 6.32 6 7 C1.64464931 5.83857315 -0.64619703 4.92300495 -3 1 C-2.01 0.67 -1.02 0.34 0 0 Z " fill="#4B4C4B" transform="translate(1076,1295)"/>
<path d="M0 0 C0.99 0 1.98 0 3 0 C5.09230769 4.43076923 5.09230769 4.43076923 4.625 7.3125 C4.41875 7.869375 4.2125 8.42625 4 9 C0 2.25 0 2.25 0 0 Z " fill="#656563" transform="translate(1031,1246)"/>
<path d="M0 0 C1 2 1 2 0.58203125 3.875 C-1.51579094 9.66797093 -1.51579094 9.66797093 -4.1875 11.5 C-4.785625 11.665 -5.38375 11.83 -6 12 C-4 8 -2 4 0 0 Z " fill="#474747" transform="translate(878,1203)"/>
<path d="M0 0 C3.53372712 1.96318174 6.24479785 4.04070881 9 7 C6.03 6.505 6.03 6.505 3 6 C3 5.34 3 4.68 3 4 C2.01 3.67 1.02 3.34 0 3 C0 2.01 0 1.02 0 0 Z " fill="#232423" transform="translate(777,892)"/>
<path d="M0 0 C1.31611677 0.95336021 2.62778961 1.91285774 3.9375 2.875 C4.66839844 3.40867187 5.39929688 3.94234375 6.15234375 4.4921875 C8 6 8 6 9 8 C6.03 7.505 6.03 7.505 3 7 C3 6.01 3 5.02 3 4 C2.34 4 1.68 4 1 4 C0.67 2.68 0.34 1.36 0 0 Z " fill="#2C2D2D" transform="translate(765,881)"/>
<path d="M0 0 C0.66 0 1.32 0 2 0 C5 5.75 5 5.75 5 8 C4.34 8 3.68 8 3 8 C3 7.34 3 6.68 3 6 C2.01 6 1.02 6 0 6 C0 4.02 0 2.04 0 0 Z " fill="#403F3F" transform="translate(957,691)"/>
<path d="M0 0 C2.31 0 4.62 0 7 0 C7 0.99 7 1.98 7 3 C7.99 3.33 8.98 3.66 10 4 C9.01 4.495 9.01 4.495 8 5 C6.0546875 4.22265625 6.0546875 4.22265625 3.875 3.0625 C3.15054688 2.68222656 2.42609375 2.30195312 1.6796875 1.91015625 C1.12539063 1.60980469 0.57109375 1.30945313 0 1 C0 0.67 0 0.34 0 0 Z " fill="#4E4E4E" transform="translate(940,892)"/>
<path d="M0 0 C-4.48074195 3.36055646 -7.60550707 3.27429625 -13 3 C-13 2.67 -13 2.34 -13 2 C-11.5882217 1.46605821 -10.17029756 0.94834896 -8.75 0.4375 C-7.96109375 0.14746094 -7.1721875 -0.14257812 -6.359375 -0.44140625 C-3.80896548 -1.04522837 -2.44677771 -0.8473932 0 0 Z " fill="#484847" transform="translate(1206,1236)"/>
<path d="M0 0 C4.55384615 -0.36923077 4.55384615 -0.36923077 6.8125 1.5 C7.204375 1.995 7.59625 2.49 8 3 C7.67 3.66 7.34 4.32 7 5 C4.69 4.01 2.38 3.02 0 2 C0 1.34 0 0.68 0 0 Z " fill="#525251" transform="translate(1082,1302)"/>
<path d="M0 0 C2.50298434 2.93828597 3.46930939 5.17902761 4 9 C2.68 9 1.36 9 0 9 C0 6.03 0 3.06 0 0 Z " fill="#2F312F" transform="translate(751,857)"/>
<path d="M0 0 C3 1 3 1 4.75 3.9375 C5.1625 4.948125 5.575 5.95875 6 7 C5.67 7.66 5.34 8.32 5 9 C0.57142857 3.85714286 0.57142857 3.85714286 0 0 Z " fill="#8E8E8E" transform="translate(757,1209)"/>
<path d="M0 0 C2.97 0.33 5.94 0.66 9 1 C9.33 2.32 9.66 3.64 10 5 C5 3 5 3 0 1 C0 0.67 0 0.34 0 0 Z " fill="#474748" transform="translate(991,1110)"/>
<path d="M0 0 C1.98 0 3.96 0 6 0 C6.33 1.32 6.66 2.64 7 4 C4.69 3.34 2.38 2.68 0 2 C0 1.34 0 0.68 0 0 Z " fill="#3A3C3A" transform="translate(1093,975)"/>
<path d="M0 0 C0.33 1.32 0.66 2.64 1 4 C0.01 4.66 -0.98 5.32 -2 6 C-2.33 6.99 -2.66 7.98 -3 9 C-3.66 9 -4.32 9 -5 9 C-3.7508258 5.54074837 -2.32472205 2.85306797 0 0 Z " fill="#626263" transform="translate(1044,682)"/>
<path d="M0 0 C1.98 0.66 3.96 1.32 6 2 C6 2.66 6 3.32 6 4 C6.66 4.33 7.32 4.66 8 5 C4.62537285 4.45276317 2.91765 3.9451 0 2 C0 1.34 0 0.68 0 0 Z " fill="#434342" transform="translate(855,939)"/>
</svg>
